<?xml version="1.0" encoding="UTF-8"?>
<svg id="Calque_2" data-name="Calque 2" xmlns="http://www.w3.org/2000/svg" viewBox="0 0 937.09 247.69">
  <defs>
    <style>
      .cls-1 {
        fill: #f0eee5;
      }
    </style>
  </defs>
  <g id="Calque_1-2" data-name="Calque 1">
    <g>
      <path class="cls-1" d="M21.47,192.65H0V0h21.47v77.61h3.3c4.77-8.26,11.37-14.54,19.82-18.85,8.44-4.31,17.61-6.47,27.52-6.47,8.44,0,16.42,1.56,23.94,4.68,7.52,3.12,14.17,7.62,19.95,13.49,5.78,5.87,10.36,13.12,13.76,21.74,3.39,8.63,5.09,18.44,5.09,29.45v5.5c0,11.19-1.65,21.1-4.95,29.72-3.3,8.63-7.84,15.87-13.62,21.74-5.78,5.87-12.52,10.32-20.23,13.35-7.71,3.03-15.87,4.54-24.49,4.54-4.4,0-8.9-.51-13.48-1.51-4.59-1.01-8.94-2.57-13.07-4.68-4.13-2.11-7.94-4.68-11.42-7.71-3.49-3.03-6.42-6.65-8.81-10.87h-3.3v20.92ZM67.15,176.13c6.61,0,12.66-1.14,18.16-3.44,5.5-2.29,10.32-5.55,14.45-9.77,4.13-4.22,7.34-9.36,9.63-15.41,2.29-6.05,3.44-12.84,3.44-20.37v-5.5c0-7.34-1.15-13.99-3.44-19.95-2.3-5.96-5.5-11.1-9.63-15.41-4.13-4.31-8.99-7.66-14.59-10.05-5.6-2.38-11.61-3.58-18.03-3.58s-12.38,1.24-17.89,3.72c-5.5,2.48-10.32,5.92-14.45,10.32-4.13,4.4-7.39,9.68-9.77,15.82-2.39,6.15-3.58,12.89-3.58,20.23v3.3c0,7.53,1.19,14.36,3.58,20.5,2.38,6.15,5.64,11.42,9.77,15.82,4.13,4.4,8.94,7.8,14.45,10.18,5.5,2.39,11.46,3.58,17.89,3.58Z"/>
      <path class="cls-1" d="M151.92,56.14h49.54v18.16h3.3c3.48-7.52,8.44-13.07,14.86-16.65,6.42-3.58,13.76-5.37,22.02-5.37,13.76,0,24.86,4.5,33.3,13.49,8.44,8.99,12.94,22.11,13.49,39.36l-22.57,3.3c0-12.66-3.03-21.78-9.08-27.38-6.05-5.59-13.48-8.39-22.29-8.39-5.69,0-10.6,1.1-14.72,3.3-4.13,2.2-7.57,5.23-10.32,9.08-2.75,3.85-4.77,8.35-6.05,13.49-1.29,5.14-1.93,10.64-1.93,16.51v57.79h34.68v19.82h-87.52v-19.82h31.37v-96.87h-28.07v-19.81Z"/>
      <path class="cls-1" d="M329.98,131c.55,13.58,4.77,24.49,12.66,32.75,7.89,8.26,18.89,12.38,33.03,12.38,6.42,0,12.02-.73,16.79-2.2,4.77-1.47,8.85-3.48,12.25-6.05,3.39-2.57,6.14-5.55,8.26-8.94,2.11-3.39,3.81-7.02,5.09-10.87l20.37,5.5c-3.85,12.66-10.96,22.98-21.33,30.96-10.37,7.98-24.36,11.97-41.97,11.97-9.73,0-18.67-1.7-26.83-5.09-8.17-3.39-15.18-8.21-21.05-14.45-5.87-6.24-10.46-13.67-13.76-22.29-3.3-8.62-4.95-18.16-4.95-28.62v-6.6c0-9.54,1.69-18.44,5.09-26.7,3.39-8.26,8.12-15.36,14.17-21.33,6.05-5.96,13.16-10.64,21.33-14.04,8.16-3.39,17.02-5.09,26.56-5.09,11.19,0,20.87,2.06,29.03,6.19,8.16,4.13,14.86,9.22,20.09,15.27,5.23,6.05,9.08,12.66,11.56,19.82,2.48,7.16,3.71,13.76,3.71,19.82v17.61h-110.08ZM375.66,72.66c-6.05,0-11.7.96-16.93,2.89-5.23,1.93-9.82,4.64-13.76,8.12-3.95,3.49-7.16,7.57-9.63,12.25-2.48,4.68-4.08,9.77-4.82,15.27h88.07c-.37-5.87-1.79-11.19-4.27-15.96-2.48-4.77-5.69-8.81-9.63-12.11-3.95-3.3-8.44-5.87-13.48-7.71-5.05-1.83-10.23-2.75-15.55-2.75Z"/>
      <path class="cls-1" d="M568.04,169.53h-3.3c-4.4,9.18-10.51,15.96-18.3,20.37-7.8,4.4-16.01,6.6-24.63,6.6s-17.34-1.51-25.04-4.54c-7.71-3.03-14.45-7.52-20.23-13.49-5.78-5.96-10.32-13.25-13.62-21.88-3.3-8.62-4.95-18.62-4.95-30v-4.4c0-11.19,1.65-21.1,4.95-29.72,3.3-8.62,7.84-15.91,13.62-21.88,5.78-5.96,12.52-10.5,20.23-13.62,7.71-3.12,15.87-4.68,24.49-4.68,9.36,0,17.84,2.06,25.46,6.19,7.61,4.13,13.62,10.51,18.03,19.13h3.3v-21.47h21.47v108.43c0,5.5,2.48,8.26,7.43,8.26h6.88v19.82h-14.59c-6.24,0-11.33-2.02-15.27-6.05-3.95-4.03-5.92-9.17-5.92-15.41v-1.65ZM524,176.13c6.42,0,12.34-1.19,17.75-3.58,5.41-2.38,10.05-5.78,13.9-10.18,3.85-4.4,6.88-9.68,9.08-15.82,2.2-6.15,3.3-12.98,3.3-20.5v-3.3c0-7.34-1.1-14.08-3.3-20.23-2.2-6.15-5.28-11.42-9.22-15.82-3.95-4.4-8.63-7.84-14.04-10.32-5.41-2.48-11.24-3.72-17.48-3.72s-12.29,1.2-17.61,3.58c-5.32,2.39-9.96,5.74-13.9,10.05-3.95,4.31-7.02,9.54-9.22,15.69-2.2,6.15-3.3,12.89-3.3,20.23v4.4c0,15.6,4.08,27.75,12.25,36.47,8.16,8.72,18.76,13.07,31.79,13.07Z"/>
      <path class="cls-1" d="M651.97,91.37c0,6.6,2.79,11.65,8.39,15.14,5.59,3.49,15.82,5.78,30.69,6.88,15.96,1.29,28.12,5.09,36.47,11.42,8.35,6.33,12.52,15.55,12.52,27.66v1.65c0,6.61-1.33,12.52-3.99,17.75-2.66,5.23-6.33,9.68-11.01,13.35-4.68,3.67-10.37,6.47-17.06,8.39-6.7,1.93-13.99,2.89-21.88,2.89-10.64,0-19.77-1.42-27.38-4.27-7.62-2.84-13.94-6.6-18.99-11.28-5.05-4.68-8.85-10-11.42-15.96-2.57-5.96-4.04-11.97-4.4-18.03l20.37-4.95c.92,10.46,4.95,18.85,12.11,25.18,7.16,6.33,16.69,9.49,28.62,9.49,10.09,0,18.21-1.97,24.36-5.92,6.14-3.94,9.22-9.49,9.22-16.65,0-7.71-3.03-13.21-9.08-16.51-6.05-3.3-15.87-5.41-29.45-6.33-15.78-1.1-27.89-4.77-36.33-11.01-8.44-6.24-12.66-15.32-12.66-27.25v-1.65c0-6.42,1.38-12.06,4.13-16.93,2.75-4.86,6.47-8.94,11.15-12.25,4.68-3.3,9.95-5.78,15.82-7.43,5.87-1.65,12.01-2.48,18.44-2.48,8.99,0,16.88,1.24,23.67,3.72,6.79,2.48,12.48,5.69,17.06,9.63,4.58,3.95,8.12,8.49,10.6,13.62,2.48,5.14,4.08,10.28,4.82,15.41l-20.37,4.95c-.92-8.81-4.45-15.69-10.59-20.64-6.15-4.95-14.17-7.43-24.08-7.43-3.85,0-7.57.41-11.15,1.24s-6.74,2.06-9.49,3.72c-2.75,1.65-4.95,3.72-6.61,6.19-1.65,2.48-2.48,5.37-2.48,8.67Z"/>
      <path class="cls-1" d="M859.21,167.88h-3.3c-4.4,8.81-10.18,15.78-17.34,20.92-7.16,5.13-16.24,7.71-27.25,7.71-7.53,0-14.45-1.24-20.78-3.72-6.33-2.48-11.74-6.19-16.24-11.15-4.5-4.95-7.98-11.1-10.46-18.44-2.48-7.34-3.71-15.87-3.71-25.59V56.14h21.47v78.71c0,14.31,2.93,24.77,8.81,31.37,5.87,6.6,14.86,9.91,26.97,9.91,13.03,0,23.26-4.45,30.69-13.35,7.43-8.9,11.15-20.78,11.15-35.64V56.14h21.47v170.08c0,6.24-1.97,11.37-5.92,15.41-3.95,4.03-9.04,6.05-15.27,6.05h-89.09v-19.82h81.39c4.95,0,7.43-2.75,7.43-8.26v-51.74Z"/>
      <path class="cls-1" d="M909.83,180.79c0-3.76,1.33-6.98,3.99-9.64s5.87-3.99,9.64-3.99,6.98,1.33,9.64,3.99c2.66,2.66,3.99,5.87,3.99,9.64s-1.33,6.98-3.99,9.64c-2.66,2.66-5.87,3.99-9.64,3.99s-6.98-1.33-9.64-3.99c-2.66-2.66-3.99-5.87-3.99-9.64Z"/>
    </g>
  </g>
</svg>