<svg width="843" height="237" viewBox="0 0 843 237" fill="none" xmlns="http://www.w3.org/2000/svg">
<path d="M19.3009 173.508H0V0.389648H19.3009V70.1312H22.2675C26.5556 62.7086 32.4888 57.0653 40.085 53.1923C47.6723 49.3192 55.9159 47.3782 64.8247 47.3782C72.412 47.3782 79.5858 48.7801 86.346 51.5837C93.1063 54.3874 99.0844 58.4312 104.28 63.7061C109.476 68.9809 113.594 75.4959 116.65 83.2419C119.698 90.997 121.226 99.8124 121.226 109.706V114.649C121.226 124.704 119.743 133.609 116.776 141.355C113.81 149.11 109.728 155.616 104.532 160.891C99.3361 166.166 93.2771 170.165 86.346 172.888C79.415 175.611 72.0794 176.967 64.3302 176.967C60.3748 176.967 56.3294 176.509 52.2121 175.611C48.0859 174.703 44.1754 173.301 40.4626 171.405C36.7499 169.509 33.3248 167.2 30.1964 164.477C27.059 161.754 24.425 158.501 22.2765 154.709H19.3099V173.508H19.3009ZM60.3658 158.663C66.308 158.663 71.7467 157.638 76.6911 155.571C81.6354 153.514 85.9684 150.584 89.6812 146.792C93.3939 143 96.2796 138.381 98.3383 132.944C100.397 127.508 101.431 121.406 101.431 114.64V109.697C101.431 103.101 100.397 97.1255 98.3383 91.7698C96.2706 86.4141 93.3939 81.7952 89.6812 77.9221C85.9684 74.0491 81.5994 71.0388 76.5652 68.8911C71.531 66.7524 66.1282 65.674 60.3568 65.674C54.5854 65.674 49.2276 66.7883 44.2742 69.0169C39.3299 71.2454 34.9969 74.3367 31.2841 78.2906C27.5714 82.2445 24.6408 86.9892 22.5012 92.5067C20.3527 98.0331 19.2829 104.09 19.2829 110.686V113.651C19.2829 120.418 20.3527 126.555 22.5012 132.073C24.6408 137.599 27.5714 142.335 31.2841 146.289C34.9969 150.243 39.3209 153.298 44.2742 155.437C49.2186 157.584 54.5764 158.654 60.3568 158.654L60.3658 158.663Z" fill="#F4F4F2"/>
<path d="M136.572 50.8378H181.107V67.1566H184.073C187.202 60.3991 191.661 55.4117 197.432 52.1947C203.203 48.9777 209.802 47.3691 217.227 47.3691C229.597 47.3691 239.576 51.4129 247.163 59.4915C254.75 67.57 258.796 79.3598 259.29 94.8609L239 97.8264C239 86.4499 236.277 78.2545 230.838 73.2223C225.399 68.199 218.72 65.6829 210.8 65.6829C205.685 65.6829 201.271 66.6714 197.567 68.6483C193.854 70.6253 190.762 73.3481 188.29 76.8078C185.817 80.2674 184.001 84.3112 182.851 88.9301C181.691 93.549 181.116 98.4913 181.116 103.766V155.697H212.292V173.508H133.614V155.697H161.815V68.6483H136.581V50.8468L136.572 50.8378Z" fill="#F4F4F2"/>
<path d="M296.643 118.108C297.137 130.311 300.931 140.115 308.024 147.538C315.116 154.96 325.005 158.662 337.716 158.662C343.488 158.662 348.522 158.006 352.81 156.685C357.098 155.364 360.766 153.558 363.823 151.249C366.87 148.939 369.342 146.262 371.248 143.215C373.145 140.169 374.673 136.907 375.824 133.447L394.136 138.39C390.675 149.766 384.283 159.04 374.961 166.211C365.638 173.382 353.062 176.967 337.231 176.967C328.484 176.967 320.447 175.44 313.112 172.393C305.767 169.347 299.465 165.016 294.188 159.408C288.911 153.801 284.785 147.124 281.819 139.378C278.852 131.632 277.369 123.059 277.369 113.66V107.729C277.369 99.1561 278.888 91.1584 281.944 83.7359C284.992 76.3133 289.244 69.9332 294.683 64.5684C300.122 59.2127 306.513 55.0072 313.858 51.9519C321.193 48.9056 329.158 47.3779 337.734 47.3779C347.794 47.3779 356.496 49.2291 363.832 52.9404C371.167 56.6516 377.19 61.2256 381.892 66.6622C386.593 72.0988 390.054 78.0387 392.284 84.4728C394.513 90.9068 395.619 96.8377 395.619 102.283V118.108H296.661H296.643ZM337.707 65.6827C332.269 65.6827 327.19 66.5454 322.488 68.2797C317.786 70.014 313.66 72.4493 310.118 75.5765C306.567 78.7126 303.681 82.379 301.461 86.5845C299.232 90.79 297.793 95.364 297.128 100.306H376.3C375.968 95.0315 374.691 90.2508 372.462 85.9645C370.232 81.6781 367.346 78.0477 363.805 75.0822C360.254 72.1168 356.217 69.8074 351.686 68.1539C347.147 66.5094 342.49 65.6827 337.707 65.6827Z" fill="#F4F4F2"/>
<path d="M510.65 152.732H507.684C503.728 160.981 498.235 167.073 491.233 171.036C484.221 174.99 476.84 176.967 469.091 176.967C461.342 176.967 453.503 175.61 446.581 172.887C439.65 170.165 433.591 166.13 428.395 160.765C423.199 155.409 419.117 148.859 416.151 141.103C413.184 133.357 411.701 124.371 411.701 114.145V110.191C411.701 100.136 413.184 91.2303 416.151 83.4843C419.117 75.7382 423.199 69.1873 428.395 63.8226C433.591 58.4668 439.65 54.3871 446.581 51.5834C453.512 48.7798 460.847 47.3779 468.596 47.3779C477.011 47.3779 484.634 49.2291 491.484 52.9404C498.325 56.6516 503.728 62.3848 507.693 70.1309H510.659V50.8376H529.96V148.274C529.96 153.217 532.19 155.697 536.639 155.697H542.824V173.507H529.708C524.099 173.507 519.523 171.692 515.981 168.071C512.43 164.449 510.659 159.831 510.659 154.223V152.741L510.65 152.732ZM471.06 158.662C476.831 158.662 482.153 157.593 487.016 155.445C491.88 153.307 496.051 150.251 499.512 146.297C502.973 142.344 505.697 137.599 507.675 132.081C509.652 126.555 510.641 120.417 510.641 113.66V110.694C510.641 104.098 509.652 98.0418 507.675 92.5154C505.697 86.9889 502.928 82.2532 499.386 78.2993C495.835 74.3454 491.628 71.2541 486.765 69.0256C481.901 66.797 476.66 65.6827 471.051 65.6827C465.441 65.6827 460.002 66.761 455.22 68.8998C450.437 71.0474 446.266 74.0578 442.724 77.9308C439.173 81.8039 436.413 86.5036 434.436 92.0301C432.458 97.5566 431.469 103.613 431.469 110.209V114.163C431.469 128.181 435.137 139.1 442.481 146.935C449.817 154.771 459.346 158.68 471.06 158.68V158.662Z" fill="#F4F4F2"/>
<path d="M586.101 82.4952C586.101 88.4261 588.609 92.9641 593.643 96.1002C598.668 99.2364 607.865 101.294 621.232 102.283C635.58 103.442 646.511 106.857 654.018 112.545C661.524 118.233 665.273 126.518 665.273 137.401V138.883C665.273 144.823 664.077 150.134 661.686 154.834C659.295 159.533 655.995 163.532 651.788 166.83C647.581 170.128 642.466 172.644 636.452 174.37C630.429 176.104 623.875 176.967 616.782 176.967C607.217 176.967 599.01 175.691 592.169 173.13C585.318 170.577 579.637 167.199 575.097 162.993C570.557 158.788 567.141 154.007 564.831 148.651C562.521 143.296 561.199 137.895 560.875 132.449L579.188 128.001C580.015 137.401 583.637 144.94 590.074 150.628C596.511 156.316 605.078 159.156 615.803 159.156C624.873 159.156 632.173 157.386 637.701 153.836C643.221 150.296 645.99 145.308 645.99 138.874C645.99 131.946 643.266 127.004 637.827 124.038C632.389 121.073 623.561 119.177 611.353 118.35C597.167 117.361 586.28 114.064 578.693 108.456C571.106 102.849 567.312 94.6894 567.312 83.9689V82.4862C567.312 76.7171 568.553 71.6489 571.025 67.2727C573.497 62.9054 576.841 59.2391 581.048 56.2646C585.256 53.2992 589.993 51.0707 595.27 49.5879C600.547 48.1052 606.067 47.3594 611.847 47.3594C619.929 47.3594 627.022 48.4737 633.126 50.7022C639.23 52.9308 644.345 55.8153 648.462 59.3559C652.579 62.9054 655.762 66.9851 657.991 71.595C660.221 76.2139 661.659 80.8328 662.324 85.4427L644.012 89.8908C643.185 81.974 640.012 75.7915 634.492 71.3434C628.963 66.8953 621.754 64.6667 612.845 64.6667C609.384 64.6667 606.04 65.0351 602.821 65.781C599.603 66.5268 596.762 67.6321 594.29 69.1238C591.818 70.6065 589.84 72.4667 588.348 74.6863C586.865 76.9148 586.119 79.5118 586.119 82.4772L586.101 82.4952Z" fill="#F4F4F2"/>
<path d="M772.403 151.248H769.437C765.481 159.165 760.285 165.428 753.849 170.047C747.412 174.657 739.249 176.975 729.352 176.975C722.583 176.975 716.362 175.861 710.671 173.633C704.981 171.404 700.117 168.07 696.072 163.613C692.027 159.165 688.898 153.638 686.669 147.043C684.439 140.447 683.333 132.782 683.333 124.047V50.8369H702.634V121.567C702.634 134.426 705.268 143.826 710.554 149.756C715.831 155.687 723.913 158.662 734.799 158.662C746.513 158.662 755.71 154.663 762.389 146.665C769.068 138.668 772.412 127.992 772.412 114.639V50.8369H791.713V203.673C791.713 209.281 789.942 213.891 786.391 217.521C782.84 221.142 778.265 222.958 772.664 222.958H692.575V205.147H765.742C770.192 205.147 772.421 202.676 772.421 197.725V151.23L772.403 151.248Z" fill="#F4F4F2"/>
<path d="M817.909 162.85C817.909 159.471 819.105 156.577 821.496 154.187C823.887 151.797 826.773 150.602 830.162 150.602C833.551 150.602 836.437 151.797 838.828 154.187C841.219 156.577 842.415 159.462 842.415 162.85C842.415 166.237 841.219 169.122 838.828 171.512C836.437 173.903 833.551 175.098 830.162 175.098C826.773 175.098 823.887 173.903 821.496 171.512C819.105 169.122 817.909 166.237 817.909 162.85Z" fill="#F4F4F2"/>
<path d="M216.559 199.009H225.53C227.745 199.009 229.457 199.557 230.667 200.652C231.877 201.748 232.481 203.278 232.481 205.241C232.481 206.633 232.105 207.855 231.351 208.905C230.598 209.932 229.468 210.548 227.962 210.754V210.24C229.605 210.354 230.861 210.913 231.728 211.918C232.618 212.922 233.064 214.212 233.064 215.787C233.064 217.864 232.402 219.474 231.078 220.615C229.776 221.734 227.95 222.293 225.599 222.293H216.559V199.009ZM225.051 218.766C226.307 218.766 227.254 218.504 227.893 217.979C228.555 217.431 228.886 216.62 228.886 215.547C228.886 214.383 228.567 213.55 227.927 213.048C227.311 212.523 226.421 212.26 225.257 212.26H220.702V218.766H225.051ZM225.051 208.802C226.192 208.802 227.026 208.517 227.551 207.946C228.099 207.375 228.372 206.599 228.372 205.617C228.372 204.545 228.087 203.768 227.516 203.289C226.946 202.787 226.078 202.536 224.914 202.536H220.702V208.802H225.051ZM241.782 205.72H245.343V209.863L244.863 209.795C245.297 208.38 246.016 207.352 247.021 206.713C248.048 206.051 249.258 205.72 250.65 205.72H253.15V209.315H250.274C248.676 209.315 247.511 209.601 246.781 210.172C246.05 210.719 245.685 211.621 245.685 212.877V222.293H241.782V205.72ZM236.885 218.903H252.123V222.293H236.885V218.903ZM236.885 205.72H243.049V209.11H236.885V205.72ZM264.744 222.635C262.256 222.635 260.259 221.882 258.752 220.375C257.268 218.869 256.526 216.746 256.526 214.007C256.526 212.18 256.88 210.628 257.588 209.35C258.296 208.049 259.277 207.067 260.533 206.405C261.811 205.72 263.272 205.378 264.916 205.378C266.491 205.378 267.86 205.697 269.024 206.336C270.189 206.976 271.09 207.9 271.73 209.11C272.369 210.32 272.688 211.758 272.688 213.424C272.688 214.201 272.665 214.714 272.62 214.965H259.677L260.259 214.178V214.315C260.259 216.004 260.647 217.305 261.423 218.218C262.222 219.109 263.329 219.554 264.744 219.554C265.772 219.554 266.628 219.314 267.312 218.835C267.997 218.355 268.477 217.727 268.751 216.951L272.243 217.636C271.832 219.12 270.976 220.33 269.675 221.266C268.374 222.179 266.73 222.635 264.744 222.635ZM259.677 212.329H269.641L269.024 213.322C269.047 213.116 269.059 212.888 269.059 212.637C269.059 211.427 268.682 210.434 267.929 209.658C267.198 208.859 266.194 208.459 264.916 208.459C263.523 208.459 262.404 208.882 261.56 209.726C260.738 210.548 260.304 211.735 260.259 213.287L259.677 212.329ZM282.982 222.635C281.201 222.635 279.763 222.213 278.667 221.368C277.571 220.501 277.024 219.291 277.024 217.739C277.024 216.392 277.366 215.353 278.051 214.623C278.736 213.892 279.615 213.39 280.687 213.116C281.783 212.842 283.119 212.683 284.694 212.637C286.177 212.614 287.399 212.603 288.357 212.603V211.507C288.357 210.503 288.072 209.749 287.501 209.247C286.931 208.722 286.143 208.459 285.139 208.459C284.112 208.459 283.267 208.699 282.605 209.179C281.943 209.658 281.486 210.297 281.235 211.096L277.64 210.445C278.005 208.848 278.838 207.603 280.14 206.713C281.464 205.823 283.13 205.378 285.139 205.378C287.307 205.378 289.019 205.869 290.275 206.85C291.531 207.832 292.158 209.361 292.158 211.438V222.293H288.494V219.382H288.871C288.415 220.41 287.661 221.209 286.611 221.779C285.584 222.35 284.374 222.635 282.982 222.635ZM283.94 219.622C285.219 219.622 286.269 219.337 287.091 218.766C287.935 218.173 288.357 217.374 288.357 216.369V215.239C287.695 215.216 286.828 215.228 285.755 215.273C284.637 215.273 283.735 215.342 283.05 215.479C282.365 215.593 281.84 215.81 281.475 216.13C281.11 216.449 280.927 216.894 280.927 217.465C280.927 218.173 281.19 218.709 281.715 219.074C282.24 219.44 282.982 219.622 283.94 219.622ZM308.546 222.293C306.857 222.293 305.499 222.076 304.472 221.642C303.467 221.209 302.725 220.512 302.246 219.554C301.79 218.572 301.561 217.271 301.561 215.65V209.179H296.631V205.72H301.561V201.235H305.533V205.72H312.382V209.179H305.533V215.41C305.533 216.62 305.762 217.499 306.218 218.047C306.697 218.595 307.508 218.869 308.649 218.869H312.861V222.293H308.546ZM317.676 199.009H321.613V208.939H320.997C321.454 207.843 322.184 206.976 323.188 206.336C324.193 205.697 325.357 205.378 326.681 205.378C328.439 205.378 329.843 205.891 330.893 206.919C331.943 207.946 332.468 209.418 332.468 211.336V222.293H328.53V212.123C328.53 211.05 328.245 210.229 327.674 209.658C327.126 209.087 326.316 208.802 325.243 208.802C324.239 208.802 323.382 209.121 322.675 209.761C321.967 210.4 321.613 211.267 321.613 212.363V222.293H317.676V199.009ZM365.518 222.635C363.03 222.635 361.033 221.882 359.526 220.375C358.042 218.869 357.3 216.746 357.3 214.007C357.3 212.18 357.654 210.628 358.362 209.35C359.069 208.049 360.051 207.067 361.307 206.405C362.585 205.72 364.046 205.378 365.689 205.378C367.265 205.378 368.634 205.697 369.798 206.336C370.963 206.976 371.864 207.9 372.504 209.11C373.143 210.32 373.462 211.758 373.462 213.424C373.462 214.201 373.439 214.714 373.394 214.965H360.451L361.033 214.178V214.315C361.033 216.004 361.421 217.305 362.197 218.218C362.996 219.109 364.103 219.554 365.518 219.554C366.546 219.554 367.402 219.314 368.086 218.835C368.771 218.355 369.251 217.727 369.525 216.951L373.017 217.636C372.606 219.12 371.75 220.33 370.449 221.266C369.148 222.179 367.504 222.635 365.518 222.635ZM360.451 212.329H370.415L369.798 213.322C369.821 213.116 369.833 212.888 369.833 212.637C369.833 211.427 369.456 210.434 368.703 209.658C367.972 208.859 366.968 208.459 365.689 208.459C364.297 208.459 363.178 208.882 362.334 209.726C361.512 210.548 361.078 211.735 361.033 213.287L360.451 212.329ZM383.756 222.635C381.975 222.635 380.537 222.213 379.441 221.368C378.345 220.501 377.798 219.291 377.798 217.739C377.798 216.392 378.14 215.353 378.825 214.623C379.51 213.892 380.388 213.39 381.461 213.116C382.557 212.842 383.893 212.683 385.468 212.637C386.951 212.614 388.173 212.603 389.131 212.603V211.507C389.131 210.503 388.846 209.749 388.275 209.247C387.705 208.722 386.917 208.459 385.913 208.459C384.886 208.459 384.041 208.699 383.379 209.179C382.717 209.658 382.26 210.297 382.009 211.096L378.414 210.445C378.779 208.848 379.612 207.603 380.914 206.713C382.238 205.823 383.904 205.378 385.913 205.378C388.081 205.378 389.793 205.869 391.049 206.85C392.304 207.832 392.932 209.361 392.932 211.438V222.293H389.268V219.382H389.645C389.189 220.41 388.435 221.209 387.385 221.779C386.358 222.35 385.148 222.635 383.756 222.635ZM384.714 219.622C385.993 219.622 387.043 219.337 387.865 218.766C388.709 218.173 389.131 217.374 389.131 216.369V215.239C388.469 215.216 387.602 215.228 386.529 215.273C385.411 215.273 384.509 215.342 383.824 215.479C383.139 215.593 382.614 215.81 382.249 216.13C381.884 216.449 381.701 216.894 381.701 217.465C381.701 218.173 381.964 218.709 382.489 219.074C383.014 219.44 383.756 219.622 384.714 219.622ZM405.828 222.635C403.545 222.635 401.719 222.247 400.349 221.471C398.98 220.672 398.112 219.474 397.747 217.876L401.342 217.123C401.616 217.99 402.118 218.641 402.849 219.074C403.579 219.485 404.595 219.691 405.896 219.691C407.198 219.691 408.156 219.531 408.773 219.211C409.389 218.869 409.697 218.378 409.697 217.739C409.697 217.191 409.48 216.78 409.047 216.506C408.636 216.209 407.894 215.97 406.821 215.787L403.705 215.273C401.856 214.977 400.52 214.463 399.699 213.733C398.877 213.002 398.466 211.929 398.466 210.514C398.466 208.984 399.105 207.752 400.383 206.816C401.685 205.857 403.465 205.378 405.725 205.378C407.802 205.378 409.492 205.8 410.793 206.645C412.094 207.489 412.916 208.631 413.258 210.069L409.766 210.788C409.195 209.144 407.825 208.322 405.657 208.322C404.515 208.322 403.636 208.505 403.02 208.87C402.427 209.213 402.13 209.692 402.13 210.308C402.13 210.834 402.335 211.222 402.746 211.473C403.157 211.724 403.876 211.929 404.903 212.089L408.019 212.637C409.868 212.934 411.227 213.47 412.094 214.246C412.961 215 413.395 216.095 413.395 217.533C413.395 219.086 412.733 220.33 411.409 221.266C410.108 222.179 408.248 222.635 405.828 222.635ZM418.758 225.477H421.086C421.862 225.477 422.467 225.34 422.901 225.067C423.335 224.793 423.711 224.256 424.031 223.457L424.784 221.608L424.921 223.32L416.566 205.72H420.846L427.387 220.238L425.709 220.204L431.153 205.72H435.125L427.9 223.765C427.375 225.089 426.862 226.105 426.359 226.813C425.857 227.52 425.218 228.046 424.442 228.388C423.689 228.753 422.696 228.936 421.463 228.936H418.758V225.477ZM443.295 225.58C444.231 225.398 444.928 225.078 445.384 224.621C445.841 224.188 446.069 223.583 446.069 222.807V222.293H443.912V217.328H448.706V222.601C448.706 224.245 448.283 225.512 447.439 226.402C446.594 227.292 445.339 227.851 443.672 228.08L443.295 225.58ZM486.447 222.635C484.164 222.635 482.338 222.247 480.968 221.471C479.599 220.672 478.731 219.474 478.366 217.876L481.961 217.123C482.235 217.99 482.738 218.641 483.468 219.074C484.199 219.485 485.214 219.691 486.516 219.691C487.817 219.691 488.775 219.531 489.392 219.211C490.008 218.869 490.316 218.378 490.316 217.739C490.316 217.191 490.099 216.78 489.666 216.506C489.255 216.209 488.513 215.97 487.44 215.787L484.324 215.273C482.475 214.977 481.14 214.463 480.318 213.733C479.496 213.002 479.085 211.929 479.085 210.514C479.085 208.984 479.724 207.752 481.003 206.816C482.304 205.857 484.084 205.378 486.344 205.378C488.422 205.378 490.111 205.8 491.412 206.645C492.713 207.489 493.535 208.631 493.877 210.069L490.385 210.788C489.814 209.144 488.444 208.322 486.276 208.322C485.134 208.322 484.256 208.505 483.639 208.87C483.046 209.213 482.749 209.692 482.749 210.308C482.749 210.834 482.954 211.222 483.365 211.473C483.776 211.724 484.495 211.929 485.523 212.089L488.638 212.637C490.488 212.934 491.846 213.47 492.713 214.246C493.581 215 494.014 216.095 494.014 217.533C494.014 219.086 493.352 220.33 492.028 221.266C490.727 222.179 488.867 222.635 486.447 222.635ZM497.836 205.72H500.986V208.802H500.438C500.735 207.706 501.226 206.862 501.911 206.268C502.596 205.674 503.417 205.378 504.376 205.378C505.381 205.378 506.191 205.72 506.807 206.405C507.424 207.067 507.777 207.934 507.869 209.007H506.979C507.298 207.889 507.823 207.01 508.554 206.371C509.284 205.709 510.163 205.378 511.19 205.378C512.423 205.378 513.382 205.789 514.066 206.61C514.751 207.432 515.094 208.653 515.094 210.274V222.293H511.738V211.13C511.738 210.217 511.613 209.555 511.361 209.144C511.11 208.711 510.688 208.494 510.094 208.494C509.478 208.494 508.999 208.722 508.656 209.179C508.314 209.635 508.143 210.32 508.143 211.233V222.293H504.787V211.13C504.787 210.24 504.662 209.578 504.41 209.144C504.159 208.711 503.737 208.494 503.143 208.494C502.527 208.494 502.048 208.722 501.705 209.179C501.363 209.635 501.192 210.32 501.192 211.233V222.293H497.836V205.72ZM526.62 222.635C524.017 222.635 521.963 221.882 520.456 220.375C518.95 218.869 518.196 216.746 518.196 214.007C518.196 211.29 518.95 209.179 520.456 207.672C521.963 206.142 524.017 205.378 526.62 205.378C529.222 205.378 531.277 206.142 532.783 207.672C534.29 209.179 535.043 211.29 535.043 214.007C535.043 216.746 534.29 218.869 532.783 220.375C531.277 221.882 529.222 222.635 526.62 222.635ZM526.62 219.314C528.012 219.314 529.108 218.857 529.907 217.944C530.706 217.008 531.105 215.696 531.105 214.007C531.105 212.317 530.706 211.016 529.907 210.103C529.108 209.167 528.012 208.699 526.62 208.699C525.227 208.699 524.131 209.167 523.333 210.103C522.534 211.016 522.134 212.317 522.134 214.007C522.134 215.696 522.534 217.008 523.333 217.944C524.131 218.857 525.227 219.314 526.62 219.314ZM539.378 199.009H543.316V211.918H546.946L545.405 212.842L550.849 205.72H555.232L548.521 214.383L548.623 212.363L555.54 222.293H551.055L545.439 214.075L546.843 215.068H543.316V222.293H539.378V199.009ZM567.066 222.635C564.578 222.635 562.581 221.882 561.074 220.375C559.59 218.869 558.848 216.746 558.848 214.007C558.848 212.18 559.202 210.628 559.91 209.35C560.617 208.049 561.599 207.067 562.855 206.405C564.133 205.72 565.594 205.378 567.237 205.378C568.813 205.378 570.182 205.697 571.346 206.336C572.511 206.976 573.412 207.9 574.051 209.11C574.691 210.32 575.01 211.758 575.01 213.424C575.01 214.201 574.987 214.714 574.942 214.965H561.999L562.581 214.178V214.315C562.581 216.004 562.969 217.305 563.745 218.218C564.544 219.109 565.651 219.554 567.066 219.554C568.093 219.554 568.95 219.314 569.634 218.835C570.319 218.355 570.799 217.727 571.072 216.951L574.565 217.636C574.154 219.12 573.298 220.33 571.997 221.266C570.696 222.179 569.052 222.635 567.066 222.635ZM561.999 212.329H571.963L571.346 213.322C571.369 213.116 571.381 212.888 571.381 212.637C571.381 211.427 571.004 210.434 570.251 209.658C569.52 208.859 568.516 208.459 567.237 208.459C565.845 208.459 564.726 208.882 563.882 209.726C563.06 210.548 562.626 211.735 562.581 213.287L561.999 212.329ZM599.843 199.009H603.78V208.939H603.164C603.621 207.843 604.351 206.976 605.356 206.336C606.36 205.697 607.524 205.378 608.848 205.378C610.606 205.378 612.01 205.891 613.06 206.919C614.11 207.946 614.635 209.418 614.635 211.336V222.293H610.697V212.123C610.697 211.05 610.412 210.229 609.841 209.658C609.293 209.087 608.483 208.802 607.41 208.802C606.406 208.802 605.55 209.121 604.842 209.761C604.134 210.4 603.78 211.267 603.78 212.363V222.293H599.843V199.009ZM625.613 222.635C623.833 222.635 622.394 222.213 621.299 221.368C620.203 220.501 619.655 219.291 619.655 217.739C619.655 216.392 619.998 215.353 620.682 214.623C621.367 213.892 622.246 213.39 623.319 213.116C624.415 212.842 625.75 212.683 627.325 212.637C628.809 212.614 630.03 212.603 630.989 212.603V211.507C630.989 210.503 630.704 209.749 630.133 209.247C629.562 208.722 628.775 208.459 627.77 208.459C626.743 208.459 625.898 208.699 625.236 209.179C624.574 209.658 624.118 210.297 623.867 211.096L620.271 210.445C620.637 208.848 621.47 207.603 622.771 206.713C624.095 205.823 625.761 205.378 627.77 205.378C629.939 205.378 631.651 205.869 632.907 206.85C634.162 207.832 634.79 209.361 634.79 211.438V222.293H631.126V219.382H631.503C631.046 220.41 630.293 221.209 629.243 221.779C628.215 222.35 627.006 222.635 625.613 222.635ZM626.572 219.622C627.85 219.622 628.9 219.337 629.722 218.766C630.567 218.173 630.989 217.374 630.989 216.369V215.239C630.327 215.216 629.46 215.228 628.387 215.273C627.268 215.273 626.366 215.342 625.682 215.479C624.997 215.593 624.472 215.81 624.106 216.13C623.741 216.449 623.559 216.894 623.559 217.465C623.559 218.173 623.821 218.709 624.346 219.074C624.871 219.44 625.613 219.622 626.572 219.622ZM644.878 205.72H648.439V209.863L647.959 209.795C648.393 208.38 649.112 207.352 650.117 206.713C651.144 206.051 652.354 205.72 653.746 205.72H656.246V209.315H653.369C651.772 209.315 650.607 209.601 649.877 210.172C649.146 210.719 648.781 211.621 648.781 212.877V222.293H644.878V205.72ZM639.981 218.903H655.219V222.293H639.981V218.903ZM639.981 205.72H646.145V209.11H639.981V205.72ZM666.471 222.635C665.124 222.635 663.914 222.304 662.841 221.642C661.791 220.98 660.958 219.999 660.341 218.698C659.748 217.396 659.451 215.833 659.451 214.007C659.451 212.203 659.759 210.651 660.376 209.35C660.992 208.049 661.837 207.067 662.909 206.405C663.982 205.72 665.192 205.378 666.539 205.378C667.863 205.378 668.993 205.686 669.929 206.302C670.888 206.896 671.515 207.683 671.812 208.665H671.162V199.009H675.099V222.293H671.23V219.177H671.778C671.504 220.204 670.876 221.037 669.895 221.677C668.913 222.316 667.772 222.635 666.471 222.635ZM667.292 219.314C668.434 219.314 669.358 218.949 670.066 218.218C670.796 217.465 671.162 216.426 671.162 215.102V212.911C671.162 211.61 670.796 210.594 670.066 209.863C669.358 209.11 668.434 208.733 667.292 208.733C666.06 208.733 665.101 209.213 664.416 210.172C663.731 211.107 663.389 212.386 663.389 214.007C663.389 215.65 663.72 216.951 664.382 217.91C665.067 218.846 666.037 219.314 667.292 219.314Z" fill="#F4F4F2"/>
</svg>
