<?xml version="1.0" encoding="UTF-8"?>
<svg id="logo-footer" xmlns="http://www.w3.org/2000/svg" version="1.1">
  <!-- Generator: Adobe Illustrator 29.0.1, SVG Export Plug-In . SVG Version: 2.1.0 Build 192)  -->
  <path d="M219.61,831.62h-25.47v-228.55h25.47v92.07h3.92c5.66-9.79,13.49-17.25,23.51-22.36,10.01-5.11,20.9-7.67,32.65-7.67,10.01,0,19.48,1.85,28.4,5.55,8.92,3.7,16.81,9.03,23.67,16,6.86,6.97,12.29,15.56,16.32,25.79,4.02,10.23,6.04,21.87,6.04,34.94v6.53c0,13.28-1.96,25.03-5.88,35.26-3.92,10.23-9.3,18.83-16.16,25.79-6.86,6.97-14.86,12.24-24,15.83-9.14,3.59-18.83,5.39-29.06,5.39-5.22,0-10.56-.6-16-1.8-5.44-1.2-10.61-3.05-15.51-5.55-4.9-2.5-9.42-5.55-13.55-9.14-4.14-3.59-7.62-7.89-10.45-12.9h-3.92v24.81ZM273.81,812.03c7.84,0,15.02-1.36,21.55-4.08,6.53-2.72,12.24-6.58,17.14-11.59,4.9-5.01,8.7-11.1,11.43-18.28,2.72-7.18,4.08-15.23,4.08-24.16v-6.53c0-8.7-1.36-16.6-4.08-23.67-2.72-7.07-6.53-13.17-11.43-18.28-4.9-5.11-10.67-9.09-17.3-11.92-6.64-2.83-13.77-4.24-21.39-4.24s-14.69,1.47-21.22,4.41c-6.53,2.94-12.24,7.02-17.14,12.24-4.9,5.22-8.76,11.48-11.59,18.77-2.83,7.3-4.24,15.29-4.24,24v3.92c0,8.93,1.41,17.03,4.24,24.32,2.83,7.3,6.69,13.55,11.59,18.77,4.9,5.22,10.61,9.25,17.14,12.08,6.53,2.83,13.6,4.24,21.22,4.24Z"/>
  <path d="M374.37,669.68h58.77v21.55h3.92c4.13-8.92,10.01-15.51,17.63-19.75,7.62-4.24,16.32-6.37,26.12-6.37,16.32,0,29.49,5.34,39.51,16,10.01,10.67,15.35,26.23,16,46.69l-26.77,3.92c0-15.02-3.59-25.84-10.77-32.49-7.18-6.64-16-9.96-26.45-9.96-6.75,0-12.57,1.31-17.47,3.92-4.9,2.61-8.98,6.2-12.24,10.77-3.26,4.57-5.66,9.91-7.18,16-1.53,6.1-2.29,12.63-2.29,19.59v68.56h41.14v23.51h-103.83v-23.51h37.22v-114.93h-33.3v-23.51Z"/>
  <path d="M585.61,758.49c.65,16.11,5.66,29.06,15.02,38.85,9.36,9.79,22.42,14.69,39.18,14.69,7.62,0,14.25-.87,19.92-2.61,5.66-1.74,10.5-4.13,14.53-7.18,4.02-3.05,7.29-6.58,9.8-10.61,2.5-4.02,4.51-8.33,6.04-12.9l24.16,6.53c-4.57,15.02-13.01,27.26-25.3,36.73-12.3,9.47-28.89,14.2-49.79,14.2-11.54,0-22.15-2.02-31.83-6.04-9.69-4.02-18.01-9.74-24.98-17.14-6.97-7.4-12.41-16.21-16.32-26.45-3.92-10.23-5.88-21.55-5.88-33.96v-7.84c0-11.32,2.01-21.88,6.04-31.67,4.02-9.79,9.63-18.23,16.81-25.3,7.18-7.07,15.62-12.62,25.3-16.65,9.68-4.03,20.19-6.04,31.51-6.04,13.27,0,24.76,2.45,34.45,7.35,9.68,4.9,17.63,10.94,23.83,18.12,6.2,7.18,10.77,15.02,13.71,23.51,2.94,8.49,4.41,16.32,4.41,23.51v20.9h-130.6ZM639.81,689.27c-7.18,0-13.88,1.14-20.08,3.43-6.2,2.29-11.65,5.5-16.32,9.63-4.68,4.14-8.49,8.98-11.43,14.53-2.94,5.55-4.85,11.59-5.71,18.12h104.48c-.44-6.96-2.12-13.27-5.06-18.94-2.94-5.66-6.75-10.45-11.43-14.37-4.68-3.92-10.01-6.96-16-9.14-5.99-2.17-12.14-3.26-18.45-3.26Z"/>
  <path d="M868.03,804.2h-3.92c-5.22,10.89-12.46,18.94-21.71,24.16-9.25,5.22-18.99,7.84-29.22,7.84s-20.57-1.8-29.71-5.39c-9.14-3.59-17.14-8.92-24-16-6.86-7.07-12.24-15.72-16.16-25.96-3.92-10.23-5.88-22.09-5.88-35.59v-5.22c0-13.27,1.96-25.03,5.88-35.26,3.92-10.23,9.3-18.88,16.16-25.96,6.86-7.07,14.86-12.46,24-16.16,9.14-3.7,18.82-5.55,29.06-5.55,11.1,0,21.17,2.45,30.2,7.35,9.03,4.9,16.16,12.46,21.39,22.69h3.92v-25.47h25.47v128.64c0,6.53,2.94,9.79,8.82,9.79h8.16v23.51h-17.3c-7.4,0-13.44-2.39-18.12-7.18-4.68-4.78-7.02-10.88-7.02-18.28v-1.96ZM815.79,812.03c7.62,0,14.64-1.41,21.06-4.24,6.42-2.83,11.92-6.86,16.49-12.08,4.57-5.22,8.16-11.48,10.77-18.77,2.61-7.29,3.92-15.4,3.92-24.32v-3.92c0-8.7-1.31-16.7-3.92-24-2.61-7.29-6.26-13.55-10.94-18.77-4.68-5.22-10.23-9.31-16.65-12.24-6.42-2.94-13.34-4.41-20.73-4.41s-14.59,1.42-20.9,4.24c-6.32,2.83-11.81,6.81-16.49,11.92-4.68,5.12-8.32,11.32-10.94,18.61-2.61,7.3-3.92,15.29-3.92,24v5.22c0,18.5,4.84,32.93,14.53,43.26,9.68,10.34,22.25,15.51,37.71,15.51Z"/>
  <path d="M967.61,711.47c0,7.84,3.32,13.83,9.96,17.96,6.64,4.14,18.77,6.86,36.4,8.16,18.94,1.53,33.35,6.04,43.26,13.55,9.9,7.51,14.86,18.45,14.86,32.81v1.96c0,7.84-1.58,14.86-4.74,21.06-3.16,6.2-7.51,11.48-13.06,15.84-5.55,4.36-12.3,7.67-20.24,9.96-7.95,2.29-16.6,3.43-25.96,3.43-12.63,0-23.46-1.69-32.49-5.06-9.03-3.37-16.54-7.84-22.53-13.39-5.99-5.55-10.5-11.86-13.55-18.94-3.05-7.07-4.79-14.2-5.22-21.39l24.16-5.88c1.09,12.41,5.88,22.37,14.37,29.87,8.49,7.51,19.8,11.26,33.96,11.26,11.97,0,21.6-2.34,28.9-7.02,7.29-4.68,10.94-11.26,10.94-19.75,0-9.14-3.59-15.67-10.77-19.59-7.18-3.92-18.83-6.42-34.94-7.51-18.72-1.31-33.09-5.66-43.1-13.06-10.01-7.4-15.02-18.17-15.02-32.32v-1.96c0-7.62,1.63-14.31,4.9-20.08,3.26-5.76,7.67-10.61,13.22-14.53,5.55-3.92,11.81-6.86,18.77-8.82,6.96-1.96,14.25-2.94,21.87-2.94,10.66,0,20.02,1.47,28.08,4.41,8.05,2.94,14.8,6.75,20.24,11.43,5.44,4.68,9.63,10.07,12.57,16.16,2.94,6.1,4.84,12.19,5.71,18.28l-24.16,5.88c-1.09-10.45-5.28-18.61-12.57-24.49-7.3-5.88-16.81-8.82-28.57-8.82-4.57,0-8.98.49-13.22,1.47s-8,2.45-11.26,4.41c-3.27,1.96-5.88,4.41-7.84,7.35-1.96,2.94-2.94,6.37-2.94,10.28Z"/>
  <path d="M1213.46,802.24h-3.92c-5.22,10.45-12.08,18.72-20.57,24.81-8.49,6.09-19.26,9.14-32.32,9.14-8.93,0-17.14-1.47-24.65-4.41-7.51-2.94-13.93-7.35-19.26-13.22-5.34-5.88-9.47-13.17-12.41-21.88-2.94-8.7-4.41-18.82-4.41-30.36v-96.64h25.47v93.38c0,16.98,3.48,29.38,10.45,37.22,6.96,7.84,17.63,11.75,32,11.75,15.45,0,27.59-5.27,36.4-15.84,8.82-10.55,13.22-24.65,13.22-42.28v-84.24h25.47v201.77c0,7.4-2.34,13.49-7.02,18.28-4.68,4.78-10.72,7.18-18.12,7.18h-105.7v-23.51h96.55c5.88,0,8.82-3.26,8.82-9.79v-61.38Z"/>
  <path d="M1273.52,817.56c0-4.46,1.58-8.28,4.73-11.43s6.96-4.73,11.43-4.73,8.27,1.58,11.43,4.73c3.15,3.16,4.73,6.97,4.73,11.43s-1.58,8.28-4.73,11.43c-3.16,3.15-6.97,4.73-11.43,4.73s-8.28-1.58-11.43-4.73c-3.16-3.15-4.73-6.96-4.73-11.43Z"/>
</svg>