<svg width="40" height="40" viewBox="0 0 40 40" fill="none" xmlns="http://www.w3.org/2000/svg">
<g id="Frame 52">
<rect width="40" height="40" rx="20" fill="black"/>
<g id="Group 1">
<path id="Vector" d="M14.944 28.0836H13.1123V11.6545H14.944V18.2731H15.2255C15.6324 17.5686 16.1955 17.0331 16.9164 16.6655C17.6364 16.298 18.4188 16.1138 19.2642 16.1138C19.9842 16.1138 20.665 16.2468 21.3066 16.5129C21.9481 16.779 22.5155 17.1627 23.0086 17.6633C23.5017 18.1639 23.8924 18.7822 24.1825 19.5173C24.4717 20.2532 24.6167 21.0898 24.6167 22.0287V22.4978C24.6167 23.4521 24.476 24.2972 24.1944 25.0323C23.9129 25.7682 23.5256 26.3857 23.0325 26.8862C22.5394 27.3868 21.9644 27.7663 21.3066 28.0247C20.6488 28.2831 19.9527 28.4119 19.2173 28.4119C18.8419 28.4119 18.458 28.3684 18.0673 28.2831C17.6757 28.197 17.3046 28.064 16.9522 27.884C16.5999 27.7041 16.2748 27.4849 15.978 27.2265C15.6802 26.9681 15.4303 26.6594 15.2264 26.2995H14.9448V28.0836H14.944ZM18.8411 26.6748C19.405 26.6748 19.9211 26.5775 20.3903 26.3814C20.8596 26.1861 21.2708 25.9081 21.6231 25.5482C21.9754 25.1883 22.2493 24.75 22.4447 24.2341C22.64 23.7181 22.7381 23.1391 22.7381 22.4969V22.0279C22.7381 21.4019 22.64 20.8348 22.4447 20.3266C22.2485 19.8183 21.9754 19.38 21.6231 19.0124C21.2708 18.6449 20.8561 18.3592 20.3784 18.1554C19.9006 17.9524 19.3879 17.8501 18.8402 17.8501C18.2925 17.8501 17.784 17.9558 17.314 18.1673C16.8447 18.3788 16.4335 18.6722 16.0812 19.0474C15.7288 19.4226 15.4507 19.8729 15.2477 20.3965C15.0438 20.921 14.9423 21.4958 14.9423 22.1217V22.4031C14.9423 23.0453 15.0438 23.6277 15.2477 24.1513C15.4507 24.6758 15.7288 25.1252 16.0812 25.5005C16.4335 25.8757 16.8439 26.1656 17.314 26.3686C17.7832 26.5724 18.2916 26.6739 18.8402 26.6739L18.8411 26.6748Z" fill="white"/>
<path id="Vector_2" d="M26.1455 27.0721C26.1455 26.7515 26.259 26.4769 26.4859 26.2501C26.7128 26.0232 26.9867 25.9098 27.3083 25.9098C27.63 25.9098 27.9038 26.0232 28.1307 26.2501C28.3577 26.4769 28.4711 26.7506 28.4711 27.0721C28.4711 27.3936 28.3577 27.6674 28.1307 27.8942C27.9038 28.1211 27.63 28.2345 27.3083 28.2345C26.9867 28.2345 26.7128 28.1211 26.4859 27.8942C26.259 27.6674 26.1455 27.3936 26.1455 27.0721Z" fill="white"/>
</g>
</g>
</svg>
