<svg width="32" height="32" viewBox="0 0 32 32" fill="none" xmlns="http://www.w3.org/2000/svg">
<g id="Frame 34">
<rect width="32" height="32" rx="16" fill="white"/>
<g id="Group 1">
<path id="Vector" d="M11.1553 22.4668H9.68994V9.32361H11.1553V14.6184H11.3805C11.7061 14.0549 12.1565 13.6265 12.7332 13.3324C13.3093 13.0384 13.9351 12.891 14.6115 12.891C15.1875 12.891 15.7321 12.9974 16.2454 13.2103C16.7586 13.4231 17.2125 13.7302 17.607 14.1306C18.0015 14.5311 18.314 15.0257 18.5461 15.6138C18.7775 16.2026 18.8935 16.8718 18.8935 17.623V17.9982C18.8935 18.7616 18.7809 19.4377 18.5556 20.0258C18.3304 20.6146 18.0206 21.1085 17.6261 21.509C17.2316 21.9094 16.7716 22.213 16.2454 22.4198C15.7192 22.6265 15.1622 22.7295 14.5739 22.7295C14.2736 22.7295 13.9665 22.6947 13.6539 22.6265C13.3406 22.5576 13.0438 22.4511 12.7619 22.3072C12.48 22.1632 12.22 21.9879 11.9825 21.7812C11.7443 21.5745 11.5443 21.3275 11.3812 21.0396H11.156V22.4668H11.1553ZM14.2729 21.3398C14.7241 21.3398 15.137 21.262 15.5124 21.1051C15.8877 20.9489 16.2167 20.7265 16.4986 20.4385C16.7805 20.1506 16.9995 19.8 17.1558 19.3872C17.3121 18.9745 17.3906 18.5112 17.3906 17.9975V17.6223C17.3906 17.1215 17.3121 16.6678 17.1558 16.2612C16.9989 15.8546 16.7805 15.504 16.4986 15.2099C16.2167 14.9159 15.885 14.6873 15.5028 14.5243C15.1206 14.3619 14.7104 14.28 14.2723 14.28C13.8341 14.28 13.4273 14.3646 13.0513 14.5338C12.6759 14.703 12.3469 14.9377 12.065 15.2379C11.7832 15.5381 11.5607 15.8983 11.3982 16.3172C11.2351 16.7368 11.1539 17.1966 11.1539 17.6973V17.9225C11.1539 18.4362 11.2351 18.9022 11.3982 19.3211C11.5607 19.7406 11.7832 20.1002 12.065 20.4003C12.3469 20.7005 12.6752 20.9325 13.0513 21.0949C13.4266 21.2579 13.8334 21.3391 14.2723 21.3391L14.2729 21.3398Z" fill="black"/>
<path id="Vector_2" d="M20.1167 21.6577C20.1167 21.4012 20.2075 21.1815 20.389 21C20.5706 20.8186 20.7896 20.7278 21.047 20.7278C21.3043 20.7278 21.5233 20.8186 21.7049 21C21.8864 21.1815 21.9772 21.4005 21.9772 21.6577C21.9772 21.9149 21.8864 22.1339 21.7049 22.3154C21.5233 22.4968 21.3043 22.5876 21.047 22.5876C20.7896 22.5876 20.5706 22.4968 20.389 22.3154C20.2075 22.1339 20.1167 21.9149 20.1167 21.6577Z" fill="black"/>
</g>
</g>
</svg>
