<svg width="24" height="25" viewBox="0 0 24 25" fill="none" xmlns="http://www.w3.org/2000/svg">
<path fill-rule="evenodd" clip-rule="evenodd" d="M16 4.00977H8C5.23858 4.00977 3 6.24835 3 9.00977V17.0098C3 19.7712 5.23858 22.0098 8 22.0098H16C18.7614 22.0098 21 19.7712 21 17.0098V9.00977C21 6.24835 18.7614 4.00977 16 4.00977ZM19.25 17.0098C19.2445 18.8024 17.7926 20.2543 16 20.2598H8C6.20735 20.2543 4.75549 18.8024 4.75 17.0098V9.00977C4.75549 7.21712 6.20735 5.76526 8 5.75977H16C17.7926 5.76526 19.2445 7.21712 19.25 9.00977V17.0098ZM16.75 9.25977C17.3023 9.25977 17.75 8.81205 17.75 8.25977C17.75 7.70749 17.3023 7.25977 16.75 7.25977C16.1977 7.25977 15.75 7.70749 15.75 8.25977C15.75 8.81205 16.1977 9.25977 16.75 9.25977ZM12 8.50977C9.51472 8.50977 7.5 10.5245 7.5 13.0098C7.5 15.4951 9.51472 17.5098 12 17.5098C14.4853 17.5098 16.5 15.4951 16.5 13.0098C16.5027 11.8155 16.0294 10.6693 15.1849 9.82485C14.3404 8.98036 13.1943 8.50711 12 8.50977ZM9.25 13.0098C9.25 14.5286 10.4812 15.7598 12 15.7598C13.5188 15.7598 14.75 14.5286 14.75 13.0098C14.75 11.491 13.5188 10.2598 12 10.2598C10.4812 10.2598 9.25 11.491 9.25 13.0098Z" fill="white"/>
</svg>
