<svg width="24" height="25" viewBox="0 0 24 25" fill="none" xmlns="http://www.w3.org/2000/svg">
<path fill-rule="evenodd" clip-rule="evenodd" d="M4.5 4.00977C3.67157 4.00977 3 4.68134 3 5.50977V20.5098C3 21.3382 3.67157 22.0098 4.5 22.0098H19.5C20.3284 22.0098 21 21.3382 21 20.5098V5.50977C21 4.68134 20.3284 4.00977 19.5 4.00977H4.5ZM8.52076 8.01249C8.52639 8.96874 7.81061 9.55796 6.96123 9.55374C6.16107 9.54952 5.46357 8.91249 5.46779 8.0139C5.47201 7.16874 6.13998 6.48952 7.00764 6.50921C7.88795 6.5289 8.52639 7.17437 8.52076 8.01249ZM12.2797 10.7715H9.75971H9.7583V19.3314H12.4217V19.1317C12.4217 18.7518 12.4214 18.3718 12.4211 17.9917C12.4203 16.9779 12.4194 15.963 12.4246 14.9495C12.426 14.7034 12.4372 14.4475 12.5005 14.2126C12.7381 13.3351 13.5271 12.7684 14.4074 12.9077C14.9727 12.9962 15.3467 13.3239 15.5042 13.8569C15.6013 14.1901 15.6449 14.5487 15.6491 14.8961C15.6605 15.9437 15.6589 16.9913 15.6573 18.039C15.6567 18.4088 15.6561 18.7788 15.6561 19.1486V19.33H18.328V19.1247C18.328 18.6727 18.3278 18.2208 18.3275 17.7689C18.327 16.6394 18.3264 15.5099 18.3294 14.38C18.3308 13.8695 18.276 13.3661 18.1508 12.8725C17.9638 12.1384 17.5771 11.5309 16.9485 11.0922C16.5027 10.78 16.0133 10.5789 15.4663 10.5564C15.404 10.5538 15.3412 10.5504 15.2781 10.547C14.9984 10.5319 14.7141 10.5165 14.4467 10.5704C13.6817 10.7237 13.0096 11.0739 12.5019 11.6912C12.4429 11.762 12.3852 11.8339 12.2991 11.9412L12.2797 11.9655V10.7715ZM5.68164 19.3342H8.33242V10.7771H5.68164V19.3342Z" fill="white"/>
</svg>
