<svg width="134" height="36" viewBox="0 0 134 36" fill="none" xmlns="http://www.w3.org/2000/svg">
<g id="Calque_1" clip-path="url(#clip0_74_676)">
<path id="Vector" d="M3.82582 27.7225H0.791992V0.5H3.82582V11.4667H4.29213C4.96616 10.2995 5.89878 9.41215 7.09281 8.80312C8.28543 8.19409 9.5812 7.88887 10.9815 7.88887C12.1742 7.88887 13.3018 8.10931 14.3644 8.55018C15.427 8.99106 16.3667 9.62693 17.1834 10.4564C18.0002 11.2859 18.6474 12.3103 19.1278 13.5284C19.6068 14.7479 19.8471 16.1341 19.8471 17.6898V18.467C19.8471 20.0482 19.6139 21.4486 19.1476 22.6666C18.6813 23.8861 18.0398 24.9091 17.223 25.7386C16.4063 26.5681 15.4539 27.1969 14.3644 27.625C13.2749 28.0532 12.1219 28.2666 10.9038 28.2666C10.2821 28.2666 9.6462 28.1945 8.99903 28.0532C8.35043 27.9105 7.73575 27.69 7.15216 27.3919C6.56857 27.0937 6.03019 26.7306 5.53845 26.3024C5.04529 25.8743 4.63127 25.3627 4.29355 24.7664H3.82724V27.7225H3.82582ZM10.2807 25.3896C11.2147 25.3896 12.0696 25.2285 12.8468 24.9035C13.624 24.5799 14.3051 24.1192 14.8886 23.5229C15.4722 22.9266 15.9258 22.2003 16.2494 21.3454C16.573 20.4905 16.7355 19.531 16.7355 18.467V17.6898C16.7355 16.6527 16.573 15.713 16.2494 14.8708C15.9244 14.0286 15.4722 13.3023 14.8886 12.6933C14.3051 12.0842 13.6183 11.6109 12.827 11.2731C12.0357 10.9368 11.1864 10.7673 10.2793 10.7673C9.37207 10.7673 8.52989 10.9425 7.7513 11.2929C6.97411 11.6434 6.29302 12.1295 5.70943 12.7512C5.12584 13.3729 4.66518 14.119 4.32887 14.9867C3.99115 15.8557 3.823 16.8081 3.823 17.8453V18.3116C3.823 19.3756 3.99115 20.3407 4.32887 21.2083C4.66518 22.0774 5.12584 22.8221 5.70943 23.4438C6.29302 24.0655 6.9727 24.546 7.7513 24.8823C8.52848 25.22 9.37066 25.3882 10.2793 25.3882L10.2807 25.3896Z" fill="#F0EEE5"/>
<path id="Vector_2" d="M22.2593 8.43289H29.2596V10.999H29.7259C30.2177 9.93638 30.9185 9.15214 31.8257 8.64626C32.7329 8.14039 33.7701 7.88745 34.9373 7.88745C36.8816 7.88745 38.4501 8.52333 39.6428 9.79366C40.8354 11.064 41.4712 12.9179 41.549 15.3555L38.3597 15.8218C38.3597 14.0328 37.9315 12.7441 37.0766 11.9528C36.2217 11.1629 35.1718 10.7673 33.9269 10.7673C33.1229 10.7673 32.4291 10.9227 31.8469 11.2336C31.2633 11.5444 30.7772 11.9726 30.3886 12.5166C30.0001 13.0607 29.7146 13.6965 29.5337 14.4228C29.3515 15.1491 29.261 15.9263 29.261 16.7558V24.9219H34.1615V27.7225H21.7944V24.9219H26.2272V11.2336H22.2607V8.4343L22.2593 8.43289Z" fill="#F0EEE5"/>
<path id="Vector_3" d="M47.4202 19.011C47.4979 20.93 48.0942 22.4716 49.2091 23.6388C50.3241 24.806 51.8784 25.3881 53.8765 25.3881C54.7837 25.3881 55.575 25.285 56.249 25.0773C56.923 24.8696 57.4995 24.5855 57.98 24.2224C58.459 23.8592 58.8476 23.4381 59.1472 22.9591C59.4453 22.4801 59.6855 21.9671 59.8664 21.4231L62.7448 22.2003C62.2008 23.9892 61.1961 25.4475 59.7308 26.5751C58.2654 27.7027 56.2886 28.2665 53.8002 28.2665C52.4253 28.2665 51.162 28.0263 50.0089 27.5473C48.8545 27.0683 47.8639 26.3872 47.0345 25.5054C46.205 24.6237 45.5564 23.5738 45.0901 22.3557C44.6238 21.1377 44.3906 19.7896 44.3906 18.3116V17.3789C44.3906 16.0309 44.6294 14.7733 45.1099 13.6061C45.5889 12.4389 46.2573 11.4356 47.1122 10.592C47.9671 9.74985 48.9718 9.08854 50.1262 8.6081C51.2793 8.12907 52.5312 7.88885 53.8793 7.88885C55.4605 7.88885 56.8283 8.17994 57.9814 8.76354C59.1345 9.34713 60.0812 10.0664 60.8202 10.9213C61.5593 11.7762 62.1033 12.7102 62.4537 13.722C62.8042 14.7337 62.978 15.6663 62.978 16.5226V19.011H47.423H47.4202ZM53.8751 10.7673C53.0202 10.7673 52.2218 10.9029 51.4828 11.1756C50.7437 11.4483 50.0951 11.8313 49.5384 12.323C48.9802 12.8162 48.5266 13.3927 48.1776 14.054C47.8272 14.7153 47.6011 15.4346 47.4965 16.2118H59.9413C59.889 15.3823 59.6884 14.6305 59.3379 13.9565C58.9875 13.2825 58.5339 12.7116 57.9772 12.2453C57.419 11.779 56.7845 11.4158 56.0724 11.1558C55.3588 10.8973 54.6268 10.7673 53.8751 10.7673Z" fill="#F0EEE5"/>
<path id="Vector_4" d="M81.0594 24.4555H80.5931C79.9713 25.7527 79.1079 26.7108 78.0072 27.3339C76.905 27.9557 75.7449 28.2665 74.5268 28.2665C73.3088 28.2665 72.0766 28.0532 70.9885 27.625C69.8991 27.1969 68.9467 26.5624 68.1299 25.7188C67.3132 24.8766 66.6716 23.8465 66.2053 22.627C65.739 21.409 65.5059 19.9959 65.5059 18.3879V17.7661C65.5059 16.1849 65.739 14.7846 66.2053 13.5665C66.6716 12.3485 67.3132 11.3183 68.1299 10.4747C68.9467 9.63257 69.8991 8.99104 70.9885 8.55017C72.078 8.10929 73.231 7.88885 74.4491 7.88885C75.7717 7.88885 76.97 8.17994 78.0467 8.76354C79.1221 9.34713 79.9713 10.2487 80.5945 11.4667H81.0608V8.43288H84.0946V23.7547C84.0946 24.5318 84.4451 24.9218 85.1445 24.9218H86.1167V27.7225H84.0551C83.1733 27.7225 82.4541 27.4371 81.8973 26.8676C81.3392 26.2982 81.0608 25.5718 81.0608 24.6901V24.4569L81.0594 24.4555ZM74.8377 25.3881C75.7449 25.3881 76.5814 25.22 77.3459 24.8823C78.1103 24.546 78.766 24.0655 79.31 23.4438C79.854 22.822 80.2822 22.0759 80.5931 21.2083C80.9039 20.3393 81.0594 19.3742 81.0594 18.3116V17.8453C81.0594 16.8081 80.9039 15.8557 80.5931 14.9866C80.2822 14.1176 79.847 13.3729 79.2902 12.7512C78.7321 12.1294 78.0708 11.6433 77.3063 11.2929C76.5418 10.9425 75.718 10.7673 74.8363 10.7673C73.9545 10.7673 73.0996 10.9368 72.3479 11.2731C71.5961 11.6108 70.9405 12.0842 70.3837 12.6932C69.8256 13.3023 69.3918 14.0413 69.0809 14.9103C68.77 15.7794 68.6146 16.7318 68.6146 17.7689V18.3907C68.6146 20.5951 69.1911 22.3119 70.3456 23.5441C71.4986 24.7763 72.9965 25.391 74.8377 25.391V25.3881Z" fill="#F0EEE5"/>
<path id="Vector_5" d="M92.9191 13.4111C92.9191 14.3437 93.3134 15.0573 94.1047 15.5505C94.8946 16.0436 96.3402 16.3672 98.4414 16.5226C100.697 16.7049 102.415 17.2419 103.595 18.1364C104.775 19.0308 105.364 20.3337 105.364 22.0449V22.278C105.364 23.2121 105.176 24.0472 104.8 24.7862C104.424 25.5252 103.906 26.154 103.244 26.6726C102.583 27.1912 101.779 27.5869 100.834 27.8582C99.8869 28.1309 98.8568 28.2666 97.7419 28.2666C96.2384 28.2666 94.9483 28.0659 93.873 27.6632C92.7962 27.2619 91.9032 26.7306 91.1896 26.0693C90.476 25.4079 89.939 24.6562 89.5758 23.814C89.2127 22.9718 89.005 22.1226 88.9541 21.2663L91.8325 20.5668C91.9625 22.0449 92.532 23.2304 93.5437 24.1249C94.5555 25.0194 95.9021 25.4659 97.5879 25.4659C99.0137 25.4659 100.161 25.1875 101.03 24.6294C101.898 24.0726 102.333 23.2884 102.333 22.2766C102.333 21.1871 101.905 20.41 101.05 19.9437C100.195 19.4774 98.8073 19.1792 96.8884 19.0492C94.6586 18.8938 92.9474 18.3752 91.7548 17.4934C90.5622 16.6117 89.9659 15.3286 89.9659 13.6428V13.4097C89.9659 12.5025 90.1609 11.7055 90.5494 11.0174C90.938 10.3306 91.4637 9.75411 92.125 9.28639C92.7863 8.82008 93.531 8.46964 94.3605 8.23649C95.1899 8.00333 96.0575 7.88605 96.9661 7.88605C98.2365 7.88605 99.3514 8.06127 100.311 8.4117C101.27 8.76214 102.074 9.21573 102.722 9.77248C103.369 10.3306 103.869 10.9722 104.219 11.6971C104.57 12.4234 104.796 13.1497 104.9 13.8746L102.022 14.574C101.892 13.3291 101.393 12.357 100.526 11.6575C99.6566 10.958 98.5233 10.6076 97.123 10.6076C96.579 10.6076 96.0533 10.6655 95.5474 10.7828C95.0416 10.9001 94.595 11.0739 94.2064 11.3085C93.8178 11.5416 93.507 11.8341 93.2724 12.1832C93.0392 12.5336 92.922 12.942 92.922 13.4083L92.9191 13.4111Z" fill="#F0EEE5"/>
<path id="Vector_6" d="M122.203 24.2224H121.737C121.115 25.4673 120.298 26.4522 119.287 27.1785C118.275 27.9034 116.992 28.268 115.436 28.268C114.372 28.268 113.394 28.0928 112.5 27.7423C111.605 27.3919 110.841 26.8677 110.205 26.1668C109.569 25.4673 109.077 24.5983 108.727 23.5611C108.376 22.5239 108.203 21.3186 108.203 19.9451V8.43292H111.236V19.5551C111.236 21.5772 111.65 23.0552 112.481 23.9878C113.311 24.9205 114.581 25.3882 116.292 25.3882C118.134 25.3882 119.579 24.7594 120.629 23.5018C121.679 22.2441 122.205 20.5654 122.205 18.4656V8.43292H125.238V32.4662C125.238 33.3479 124.96 34.0728 124.402 34.6437C123.844 35.2132 123.125 35.4986 122.244 35.4986H109.655V32.6979H121.156C121.856 32.6979 122.206 32.3093 122.206 31.5307V24.2196L122.203 24.2224Z" fill="#F0EEE5"/>
<path id="Vector_7" d="M129.356 26.0467C129.356 25.5154 129.544 25.0603 129.92 24.6845C130.296 24.3086 130.749 24.1207 131.282 24.1207C131.815 24.1207 132.268 24.3086 132.644 24.6845C133.02 25.0603 133.208 25.5139 133.208 26.0467C133.208 26.5794 133.02 27.033 132.644 27.4088C132.268 27.7847 131.815 27.9727 131.282 27.9727C130.749 27.9727 130.296 27.7847 129.92 27.4088C129.544 27.033 129.356 26.5794 129.356 26.0467Z" fill="#F0EEE5"/>
</g>
<defs>
<clipPath id="clip0_74_676">
<rect width="132.416" height="35" fill="white" transform="translate(0.791992 0.5)"/>
</clipPath>
</defs>
</svg>
