<?xml version="1.0" encoding="UTF-8"?>

<svg id="loader-poumons" xmlns="http://www.w3.org/2000/svg" viewBox="0 0 400 400">
    <defs>
        <style>.cls-1{fill:none;stroke:#fff;stroke-miterlimit:10;stroke-width:4px;}</style>
    </defs>
    <path class="cls-1" d="M196.54,186.38c-.08.15-.12.33-.1.51.21,2.52,1.72,22.53-2.85,36.01-1.8,6.43-3.31,9.81-1.1,17.68s2.3,22.55-1.52,31.59c-.04.11-.07.21-.07.33,0,1.34-.15,10.44-3.1,15.84-3.18,5.84-7.88,10.9-24.31,12.51s-29.83,1.61-44.47,8.77-22.93,2.83-23.61,2.49c-.03-.01-.05-.03-.08-.04-.43-.26-4.61-2.95-5.89-9.86s-.05-59.13,0-61.09c0-.04,0-.07.01-.11.17-1.05,2.73-16.51,3.33-23.91s2.96-15.07,2.96-15.07c0,0,8.9-33.64,23.27-51.6s17.19-31.3,46.94-42.07c14.88-5.13,20.78,8.72,20.01,17.7-.68,7.98,5.73,38.68,7.16,45.39.19.9,1.44.98,1.74.11.34-.99.69-2.64.97-5.34.85-8.18.37-56.45.32-60.86,0-.21-.08-.41-.21-.57l-2.13-2.53c-.13-.16-.21-.36-.21-.56l-.14-5.44c0-.33-.21-.62-.5-.79-.49-.28-1.17-.97-1.11-2.68.1-2.65-1.74-13.23-2.32-15.27-.33-1.16.09-1.52.51-1.61.39-.09.65-.47.65-.88l-.06-5.48c0-.21-.08-.42-.22-.58-1.05-1.2-5.38-6.5-.08-6.24,2.54.71,4.19,1.47,5.19,2.05.58.33,1.32-.04,1.36-.71.18-2.73,1.19-7.67,6.41-5.18.29.14.64.13.91-.05,1.23-.84,4.9-2.83,6.42,1.85.03.09.05.2.05.3v3.22c0,.66.67,1.09,1.27.83,3.24-1.42,11.18-4.45,5.39,2.84-.12.15-.19.33-.2.52l-.35,6.41c-.02.32.14.6.39.8.41.31.89,1.02.38,2.57.2,2.74-1.92,14.15-3.51,17.57-.05.11-.08.23-.08.35-.02,1.11-.15,4.85-.19,5.91,0,.19-.07.36-.18.51l-2.34,3.12c-.12.16-.18.35-.18.54l-.02,53.58c0,.86,1.08,1.24,1.61.57,1.97-2.46,5.38-6.53,8.22-8.95.23-.2.35-.48.31-.78-.41-3.66-2.77-27.49,3.4-35.87s17.69-6.25,18.45-6.07c.03,0,.05.01.08.02,1.45.48,44.7,15.32,60.4,74.85,11.61,45.16,8.87,55.4,8.34,56.79-.05.13-.07.25-.06.39.31,3.31,4.1,45.47-.57,70.12,0,.04-.02.08-.03.12-.89,2.8-4.34,11.42-11.19,9.14s-24.38-13.47-39.59-15.8c-.05,0-.08-.01-.13-.01-1.5-.02-29.74-.52-37.01-8.91s-6.36-45.43-6.32-46.53c0-.02,0-.04,0-.06l1.98-20.61c.02-.21-.03-.42-.15-.6-1.47-2.14-11.2-17.44-11.31-46.11,0-.31-.15-.6-.42-.76-1.39-.84-6.03-2.75-10.48,5.71Z"/>
</svg>